<?xml version="1.0" encoding="UTF-8"?>
<!-- Created with Inkscape (http://www.inkscape.org/) -->
<svg width="164" height="64" version="1.1" viewBox="0 0 43.392 16.933" xmlns="http://www.w3.org/2000/svg" xmlns:xlink="http://www.w3.org/1999/xlink">
 <defs>
  <linearGradient id="linearGradient3644" x1="466.16" x2="520.65" y1="220.85" y2="398.45" gradientUnits="userSpaceOnUse" xlink:href="#linearGradient19173"/>
  <linearGradient id="linearGradient19173">
   <stop stop-color="#dec6a2" offset="0"/>
   <stop stop-color="#dec6a2" stop-opacity="0" offset="1"/>
  </linearGradient>
 </defs>
 <rect width="43.392" height="16.933" fill="#1c2d59" style="paint-order:markers fill stroke"/>
 <g transform="translate(-8.4355 -4.6551)">
  <g transform="matrix(.099608 0 0 .099608 -27.769 -15.982)" fill="url(#linearGradient3644)">
   <path d="m446.78 214.19c-45.287-5e-3 -82 36.713-82 82 0 47.618 31.692 82 82 82 45.287 0 82-36.713 82-82-7e-3 -7.6808-1.0932-15.323-3.2266-22.701 1.143 5.1187 1.7232 10.347 1.7305 15.592 0 39.764-32.236 72-72 72s-76.601-32.503-72-72c8.2332-70.683 73.657-81.517 115.14-60.027-19.363-13.226-39.158-14.862-51.645-14.863z" display="none" style="paint-order:markers fill stroke"/>
   <path d="m450.78 210.19c-45.287-5e-3 -82 36.713-82 82 0 47.618 31.692 82 82 82 45.287 0 82-36.713 82-82-7e-3 -7.6808-1.0932-15.323-3.2266-22.701 1.143 5.1187 1.7232 10.347 1.7305 15.592 0 39.764-32.236 72-72 72s-76.601-32.503-72-72c8.2332-70.683 73.657-81.517 115.14-60.027-19.363-13.226-39.158-14.862-51.645-14.863z" style="paint-order:markers fill stroke"/>
   <path d="m516.57 243.46s-5.5397-3.0244-8.4906-2.6942c-2.9879 0.33439-7.7815 4.561-7.7815 4.561s3.0244-5.5397 2.6942-8.4906c-0.33439-2.9879-4.561-7.7815-4.561-7.7815s5.5397 3.0244 8.4906 2.6942c2.9879-0.33439 7.7815-4.561 7.7815-4.561s-3.0244 5.5397-2.6942 8.4906c0.33439 2.9879 4.561 7.7815 4.561 7.7815z" display="none" stroke-linejoin="round" stroke-width="6" style="paint-order:markers fill stroke"/>
   <path d="m520.57 239.46s-5.5397-3.0244-8.4906-2.6942c-2.9879 0.33439-7.7815 4.561-7.7815 4.561s3.0244-5.5397 2.6942-8.4906c-0.33439-2.9879-4.561-7.7815-4.561-7.7815s5.5397 3.0244 8.4906 2.6942c2.9879-0.33439 7.7815-4.561 7.7815-4.561s-3.0244 5.5397-2.6942 8.4906c0.33439 2.9879 4.561 7.7815 4.561 7.7815z" stroke-linejoin="round" stroke-width="6" style="paint-order:markers fill stroke"/>
  </g>
  <g transform="matrix(.099608 0 0 .099608 -56.117 -74.714)">
   <g transform="translate(11.314 -8.6066)" fill="#dec6a2" style="shape-inside:url(#rect3628);white-space:pre" aria-label="智才">
    <path d="m826.89 907.11v-3.3229h0.91666q0.34375 0 0.57292-0.22917l0.57291-0.91666h4.2396l-0.22916 1.0312h7.2187v3.2083h-4.0104v1.1458h3.8958v3.0937h-3.7812l1.0312 0.91667q0.45833 0.34375 0.91666 0.34375h1.9479v3.2083h-3.3229q-1.0312 0.11458-1.2604-0.34375l-1.7188-1.6042-1.375 1.6042q-0.34375 0.34375-1.375 0.34375h-4.125v-3.0938h2.75q0.34375 0 0.68749-0.34375l1.0312-1.0312h-4.5833v-3.0937h4.8125v-1.1458h-1.4896q-0.6875 0.22917-1.375 0.22917zm14.094-4.2396h11.802v10.198q0.11458 2.5208-2.0625 2.4062h-9.7396zm7.7917 3.4375h-3.6667v6.0729h3.3229q0.34375 0 0.34375-0.57292zm-21.312 9.8542h24.865v9.2812q0.11458 3.3229-2.6354 3.2083h-22.229zm20.51 4.8125v-1.4896h-16.385v1.4896zm-16.385 3.0937v1.6042h15.927q0.45833 0.11458 0.34375-0.45833v-1.1458z"/>
    <path d="m875.36 906.88v-4.3542h4.3542v4.3542h2.1771v3.5521h-2.0625v15.354q0.11459 2.9792-2.6354 2.9792h-8.25v-3.3229h5.7292q0.80208-0.11458 0.80208-0.80208v-14.208h-19.708v-3.5521zm-15.698 17.531q0.6875 0 1.6042-1.1458l6.875-11.344h5.1562l-7.9062 13.406q-1.375 2.5208-3.2083 2.4062h-6.4167v-3.3229z"/>
   </g>
  </g>
  <g transform="matrix(.099608 0 0 .099608 -49.348 -77.819)">
   <g fill="#dec6a2" aria-label="INTALENCE">
    <path d="m770.26 893.21v20.533h5.7493v-20.533z"/>
    <path d="m807.13 913.75v-20.533h-5.7493v13.757l-14.931-13.757h-6.0427v20.533h5.7493v-13.757l14.931 13.757z"/>
    <path d="m837.66 893.21h-27.808v5.0747h11.029v15.459h5.7493v-15.459h11.029z"/>
    <path d="m845.47 893.21-12.907 20.533h6.7467l2.288-3.8133h13.669l2.3173 3.8133h6.7467l-12.907-20.533zm7.0987 12.232h-8.272l4.136-6.864z"/>
    <path d="m866.44 893.21v20.533h24.2v-5.0747h-18.451v-15.459z"/>
    <path d="m918.15 901.02h-19.008v-2.728h19.712v-5.0747h-25.461v20.533h25.52v-5.0747h-19.771v-2.7573h19.008z"/>
    <path d="m949.48 913.75v-20.533h-5.7493v13.757l-14.931-13.757h-6.0426v20.533h5.7493v-13.757l14.931 13.757z"/>
    <path d="m960.86 908.67c-0.968 0-1.7307-0.704-1.7307-1.7307v-6.9226c0-1.0267 0.76267-1.7307 1.7307-1.7307h19.184v-5.0747h-20.387c-1.848 0-3.344 0.55733-4.5173 1.672-1.1733 1.1147-1.76 2.552-1.76 4.2827v8.624c0 1.7307 0.58667 3.168 1.76 4.2827 1.1733 1.1147 2.6693 1.672 4.5173 1.672h20.651v-5.0747z"/>
    <path d="m1008.4 901.02h-19.008v-2.728h19.712v-5.0747h-25.461v20.533h25.52v-5.0747h-19.771v-2.7573h19.008z"/>
   </g>
  </g>
 </g>
</svg>
